<?xml version="1.0" encoding="UTF-8" standalone="no" ?>
<!DOCTYPE svg PUBLIC "-//W3C//DTD SVG 1.1//EN" "http://www.w3.org/Graphics/SVG/1.1/DTD/svg11.dtd">
<svg xmlns="http://www.w3.org/2000/svg" xmlns:xlink="http://www.w3.org/1999/xlink" version="1.1" width="500" height="500" viewBox="0 0 500 500" xml:space="preserve">
<desc>Created with Fabric.js 5.3.0</desc>
<defs>
</defs>
<g transform="matrix(4.9150813164 0 0 4.718532251 250 242.7902518182)" id="xYoH3ce7I7n6zEOeGjGf2"  >
<path style="stroke: rgb(0,0,0); stroke-width: 0; stroke-dasharray: none; stroke-linecap: butt; stroke-dashoffset: 0; stroke-linejoin: miter; stroke-miterlimit: 4; fill: rgb(0,0,0); fill-rule: nonzero; opacity: 1;" vector-effect="non-scaling-stroke"  transform=" translate(0, 0)" d="M -5.20868 23.56992 C -5.20868 23.56992 19.28264 32.60181 25.51166 23.56992 C 31.740679999999998 14.53803 25.51166 -37.8411 25.51166 -37.8411 L 40.87183 -37.8411 L 40.87183 37.8411 L -5.208679999999994 37.8411 z M 11.33665 15.125 C 8.02425 17.00733 1.2850300000000008 18.88566 -5.631109999999998 15.125 C -12.547249999999998 11.36434 -23.187509999999996 -9.26154 -23.187509999999996 -9.26154 L -23.187509999999996 37.8411 L -40.871829999999996 37.8411 L -40.871829999999996 -37.8411 L -24.068269999999995 -37.8411 C -24.068269999999995 -37.8411 -14.482339999999995 -14.420199999999998 -5.631109999999996 -6.613229999999998 C 3.220120000000003 1.1937400000000018 9.357230000000005 -4.015439999999998 11.336650000000002 -6.613229999999998 C 13.316070000000002 -9.211019999999998 23.393 -37.3411 23.393 -37.3411 C 23.393 -37.3411 24.6156 -6.482709999999997 22.393 1 C 20.1704 8.48271 14.64905 13.24267 11.33665 15.125 z" stroke-linecap="round" />
</g>
</svg>